<?xml version="1.0" encoding="UTF-8"?>
<svg width="1200pt" height="1200pt" version="1.1" viewBox="0 0 1200 1200" xmlns="http://www.w3.org/2000/svg">
 <path d="m306.38 495.17c0.30859 10.82 0.73047 21.637 1.1641 32.457 5.0156-1.0391 10.023-1.9609 15-2.8672 0.054688-9.1133 0.12109-18.215 0.30078-27.32-5.457-0.74219-10.961-1.5-16.465-2.2695z"/>
 <path d="m870.31 683.16c22.441-14.664 47.043-25.719 72.91-32.754 7.5859-2.2031 15.402-4.4609 23.438-6.6562-16.496-13.781-34.168-26.094-52.809-36.797-30.066-14.672-61.238-27.562-92.652-39.477-96.684-29.523-202.97-32.766-302.46-44.617l-36.977-4.5859c-35.324 1.7734-69.984 3.8438-104.58 7.7617-2.0156 8.793-4.2109 17.539-6.0469 26.25 21.086 8.0625 42.188 16.379 63.496 24.074 60 21.703 118.33 34.688 171.2 72.121 36.977 26.156 84.16 55.988 106.88 96.75 33.918 8.3711 68.023 15.402 102.62 20.898h0.003906c2.0938-19.812 10.004-38.566 22.734-53.895 2.5039-3 5.1953-5.8125 7.9492-8.625-7.3164 0.35156-14.645-0.20312-21.824-1.6523-30.133-6.8438-56.84-21.883-85.258-33.488v0.003906c-1.4766-0.61328-2.5508-1.9219-2.8672-3.4883-0.79297-1.0625-0.91406-2.4844-0.30859-3.668 5.7148-13.5 16.855-23.973 30.684-28.844 0.81641-0.32812 1.7266-0.34766 2.5586-0.058593 0.80469-0.35938 1.6992-0.46875 2.5703-0.30859 24.375 5.6211 47.879 14.523 69.859 26.465 9.8828 5.1016 25.961 12.496 28.895 24.59zm-191.79-22.789c-2.8789-2.3906-5.9336-4.8945-9.1133-7.5-3.3555-2.3164-6.8984-4.8281-10.508-7.332-7.0312-5.3164-15.336-9.8984-23.773-15.16-18.828-10.617-38.277-20.086-58.246-28.359-42.723-17.352-82.875-29.391-111.78-38.559h-0.003907c-15.863-4.2188-31.375-9.6758-46.387-16.32 16.191 2.6562 32.172 6.4727 47.812 11.426 38.422 9.957 76.195 22.258 113.11 36.836 20.262 8.4141 39.926 18.195 58.855 29.277 8.4922 5.4922 16.801 10.387 23.898 16.012 3.6016 2.6797 7.1445 5.25 10.445 7.8203 3.1211 2.8125 6.1797 5.4375 9.0469 7.9492 5.2227 4.5 10.141 9.3359 14.727 14.484 2.082 2.2578 3.9766 4.2734 5.7461 6.2344 1.5938 2.0703 3.0547 3.9648 4.3398 5.625 2.9844 3.3125 5.4766 7.0391 7.3984 11.062-1.1641 0.91016-12.348-14.371-35.57-33.496z"/>
 <path d="m317.5 434.12h7.5c1.0391-18.336 2.3828-36.309 4.1523-54.582-3.3008 0.24219-6.8984 0.9375-9.375 1.0391v0.003906c-3.3906 17.637-4.1602 35.68-2.2773 53.539z"/>
 <path d="m309.01 565.83c4.5391 1.375 9.1719 2.3945 13.867 3.0547-0.12109-8.0078-0.17969-15.938-0.24219-23.961-4.8828-1.5859-9.7109-3.1133-14.605-4.6406 0.30859 8.4922 0.67188 16.988 0.98047 25.547z"/>
 <path d="m768.75 641.36c-5.4492 2.0312-10.449 5.1055-14.727 9.0469 9.9648 4.4609 20.84 5.4375 25.492-6.6562 0.054687-0.066406 0.12109-0.13281 0.12109-0.1875-3.4219-0.9375-6.9102-1.875-10.387-2.5039-0.15234 0.054688-0.27344 0.24219-0.5 0.30078z"/>
 <path d="m303.07 354.18c31.941-2.7539 63.699 7.0195 88.566 27.25 34.285 25.855 70.164 62.711 111.96 76.031 38.316 12.188 78.102 18.336 116.55 30.742 44.305 14.242 88.5 28.848 132.32 44.68 21.086 7.6406 42.477 15.281 63.805 23.289 35.008 10.242 68.754 24.395 100.59 42.188 24.324 11.637 47.863 24.848 70.473 39.543 0.16016 0.12891 0.30469 0.27344 0.42969 0.43359 17.773-4.3477 35.977-6.707 54.273-7.0312-37.625-30.438-77.805-57.574-120.09-81.105-45.156-21.898-88.664-47.043-130.18-75.234-4.0977-2.9336-8.0078-6.1133-11.805-9.375-51.336 4.0859-104.62 11.672-155.79 2.3828-32.879-5.9922-91.875-19.379-97.5-59.773-3.75-27.32 29.766-43.273 51.891-35.691h0.003906c6.8516 2.3281 13.395 5.4766 19.492 9.375 0.33594-0.10156 0.6875-0.16406 1.0391-0.1875 32.148 0.36719 64.414 4.5273 96.441 1.2266-1.6484-1.0391-3.2344-2.1484-4.9492-3.1211-93.074-54.695-210.05-52.555-314.62-45.777-52.621 3.4219-105.94 6.0547-158.44 11.008-44.129 4.1523-91.492 3.2344-133.48 18.336 30.938-2.4453 61.875-2.0234 92.961-3.1797 42.082-1.4258 84.074-4.7266 126.05-6.0078zm109.69-2.8125c17.516-1.9141 35.125-2.8516 52.746-2.8125h4.7734l-1.4062 5.5039-0.003906-0.003906c-1.7617 5.9453-1.9297 12.246-0.48828 18.273 3.5742 11.066 9.6719 21.152 17.812 29.457 6.7031 7.1445 13.957 13.746 21.703 19.742 7.6367 5.0391 14.906 10.613 21.75 16.68-8.9883-2.4805-17.402-6.7148-24.75-12.461-8.4219-5.5898-16.273-12-23.438-19.133-9.3125-8.8398-16.234-19.902-20.109-32.148-1.3516-5.6953-1.457-11.613-0.30859-17.352-19.191-0.375-35.746-0.67578-47.812-0.49609-6.9883 1.0039-14.086 1.0234-21.082 0.0625 6.4609-3.1094 13.473-4.918 20.633-5.3125z"/>
 <path d="m747.89 657.56c-0.86719 1.2695-1.6445 2.5977-2.3242 3.9766 17.812 7.5742 34.961 16.555 53.109 23.156 11.82 5.0625 24.32 8.3789 37.098 9.8438 4.2188 0.24219 31.875-0.85156 25.555-10.453-7.3398-10.996-22.867-17.812-35.945-22.977-7.5 28.414-43.453 12.59-60.141 1.5859-0.12109-0.12109-0.17969-0.24219-0.30078-0.30078l0.003906-0.003906c-5.8789-0.44141-11.613-2.0352-16.875-4.6875z"/>
 <path d="m330.76 364.87c-6.0352-1.0312-12.145-1.582-18.27-1.6523v0.30859c-9.6562 32.023-7.2734 70.773-6.7773 103.9 0.12109 5.625 0.24219 11.25 0.42187 16.801 0.9375 0.12109 1.875 0.375 2.8125 0.49609 4.6875 0.66406 9.375 1.5273 14.117 2.1953 0.30859-13.688 0.79688-28.359 1.4609-40.574h-10.387c-0.30078 0-0.60938-0.49609-0.9375-0.55469-1.2812 0.007813-2.5156-0.49609-3.4219-1.4023-0.90625-0.91016-1.4141-2.1406-1.4062-3.4258-0.17969-21.207-3.1133-42.723 2.8789-63.441v0.003907c0.22656-0.80078 0.67188-1.5234 1.2852-2.082 0.65234-1.7734 2.3867-2.9141 4.2734-2.8125 4.4062 0.125 8.8203-0.058594 13.199-0.54297 0.26563-2.4492 0.45313-4.8281 0.75-7.2188z"/>
 <path d="m816.84 657.68c-9.375-3.75-18.824-7.9492-28.48-11.371h-0.003907c-1.8828 5.5156-5.6484 10.195-10.641 13.211 13.82 7.75 34.84 15.945 39.125-1.8398z"/>
 <path d="m374.22 381.86c-6.4297-1.7891-13.238-1.7031-19.621 0.24219-0.1875 3.543-0.24219 7.0312-0.30859 10.508 2.5117-0.12109 5.3164-0.17969 5.3164-0.17969l-0.003906 0.003906c1.043-0.046875 2.0664 0.28516 2.8789 0.9375 1.2969-0.25 2.6406 0.054688 3.6992 0.84766 1.0586 0.78906 1.7344 1.9883 1.8594 3.3047 0.83594 21.191 0.44922 42.414-1.1602 63.562-0.070312 1.8359-1.4219 3.3672-3.2344 3.668-0.67578 0.48828-1.4727-0.12109-2.5117-0.12109l-7.6992-0.003907c-0.12109 6.1133-0.24219 15.469-0.48828 22.68-0.066407 0.85156-0.12109 2.1367-0.12109 2.9336 6.7227 1.0391 13.508 2.5039 20.289 3.4766 0.1875-4.7617 0.30859-9.4688 0.24219-14.297v0.003907c-1.7109-32.262-0.97266-64.602 2.2031-96.75-0.42969-0.27344-0.91797-0.51563-1.3398-0.81641z"/>
 <path d="m344.06 477.19c0.54297-32.578-0.066406-65.211 1.4062-97.727 0.011719-0.9375 0.34375-1.8398 0.9375-2.5664 0.35156-0.95703 1.082-1.7305 2.0156-2.1367 2.3711-1.0781 4.8516-1.8984 7.3984-2.4492-5.2617-2.2266-10.676-4.0625-16.203-5.5039-4.2734 39.977-6.5625 80.492-7.4531 120.94l11.363 1.6484c0.32031-4.0547 0.44141-8.0977 0.53516-12.203z"/>
 <path d="m359 402.19c-1.0391 0.054688-3.1133 0.36719-4.9492 0.48828-0.36719 18.516-0.30078 37.5-0.48828 55.855h4.3398c1.3203-18.75 1.6875-37.555 1.0977-56.344z"/>
 <path d="m331.8 537.89c2.1367 0.74219 4.3398 1.5273 6.4766 2.3242l1.1055-8.9805c-2.5703 0.36719-5.0703 0.73047-7.6406 1.1641 0 1.8281 0 3.6641 0.058593 5.4922z"/>
 <path d="m372.51 504.21-20.41-2.7461c-0.49609 6.2891-1.1641 12.523-1.875 18.824 6.9766-1.0391 13.941-1.875 20.906-2.7578 0.58203-4.3945 1.0586-8.8555 1.3789-13.32z"/>
 <path d="m382.11 495.11c32.758 4.9492 65.578 9.8359 98.438 14.062l3.8516-0.17969h0.003907c1.0977-0.085938 2.1797 0.29297 2.9883 1.043 26.035 3.3008 52.012 6.2266 78.113 8.1289v-0.003907c58.238 2.6719 116.23 9.3047 173.57 19.859-40.312-12.188-80.738-27.863-121.38-40.883-35.445-11.371-72.367-16.742-107.57-27.992s-64.688-34.105-93.629-56.477c-11.43-8.8594-21.945-17.164-32.457-24.375-4.0977 34.172-0.36719 67.969-1.5859 102.31-0.042969 1.5078-0.22266 2.9805-0.34375 4.5078z"/>
 <path d="m362.05 558.61c-5.3164-1.9492-10.574-3.75-15.824-5.6797-0.79688 7.0859-1.3516 14.242-1.7148 21.395l-0.003906-0.003907c4.4414 1.5625 9.1133 2.3477 13.82 2.3164 0.66406-6.1133 1.9102-12.148 3.7227-18.027z"/>
 <path d="m379.11 516.68c17.539-1.9492 35.148-3.4766 52.809-4.6875-16.93-2.1367-33.918-4.3984-50.914-6.6562-0.48828 3.8242-1.1641 7.5586-1.8945 11.344z"/>
 <path d="m366.09 544.37c1.4727-5.8047 2.6328-11.605 3.6758-17.418-6.9141 0.79297-13.82 1.7109-20.719 2.7578-0.61719 4.5859-1.1641 9.168-1.7148 13.688 5.7461 2.1367 11.492 4.2734 17.242 6.4766 0.53906-1.8359 1.0547-3.6641 1.5156-5.5039z"/>
 <path d="m1055.1 641c-33.066-3.1133-70.895 6.9648-101.89 16.012-30.055 7.3242-58.5 20.129-83.906 37.773-0.79688 0.60938-1.4727 1.2188-2.2031 1.875-0.89844 0.89062-1.8828 1.6875-2.9375 2.3828-20.695 17.43-34.027 42.047-37.32 68.906 22.18 3.3555 44.492 6.1016 67.164 8.1836 47.617 4.2188 96.141 11.184 143.93 11.184 31.875-0.054688 76.574-2.2031 103.59-23.773 9.3945-64.605-41.523-90.516-86.438-122.54zm48.469 119.55c-3.1719 1.5781-6.4883 2.8359-9.9102 3.75-2.0156 0.61719-4.0859 1.2266-6.3555 1.875-2.3164 0.49609-4.6875 0.9375-7.2656 1.4062-11.984 2.1211-24.145 3.043-36.309 2.7578-14.785-0.51953-29.523-1.9492-44.129-4.2852-26.352-4.5273-52.395-10.691-77.98-18.449-10.801-2.5586-21.305-6.2266-31.352-10.941 11.07 0.75 22.02 2.7578 32.633 5.9883 19.922 4.5859 47.305 11.25 77.812 16.312 15.336 2.3828 29.945 3.9766 43.266 4.6875 11.77 0.57812 23.562 0.21484 35.27-1.0938 19.988-2.3828 31.539-7.7617 32.082-6.5625 0.24219 0.45703-2.5117 2.043-7.7617 4.5547z"/>
 <path d="m392.06 710.62c-0.03125 4.1406 0.15234 8.2812 0.55469 12.402 39.664 18.148 79.453 36.18 119.66 52.988-15.895-45.301-96.875-31.977-120.22-65.391z"/>
 <path d="m328.38 617.95c92.23 30.797 182.99 65.953 275.46 96.02 32.09 10.387 64.051 19.742 96.141 27.992-28.238-43.398-84.523-78.75-126.56-103.71-52.93-31.293-116.3-42.91-173.34-65.211-10.266-4.0312-20.477-7.8828-30.676-11.738-1.1133 6.1953-1.832 12.461-2.1445 18.75-0.03125 1.793-1.1758 3.375-2.8711 3.9648-0.78516 1.0117-1.9648 1.6367-3.2422 1.7148-7.457 0.53125-14.93-0.70312-21.816-3.6094-0.054687 0-0.054687 0-0.12109-0.054688-1.1289 0.011719-2.207-0.45312-2.9766-1.2812-0.76562-0.82422-1.1523-1.9375-1.0547-3.0586 0.30078-9.375 1.0977-18.703 2.0703-27.992-1.7734-0.60938-3.6016-1.1641-5.4375-1.7734 0.066406 8.25 0.1875 16.566 0.30859 24.816v-0.003906c-0.03125 0.39453-0.09375 0.78125-0.1875 1.1641 0.17187 1.2188-0.23047 2.4531-1.0938 3.3359-0.85938 0.88281-2.0781 1.3203-3.3008 1.1836-7.6914-0.49219-15.289-1.9531-22.613-4.3398-1.2422 0.10156-2.4688-0.30859-3.3984-1.1367-0.92969-0.82422-1.4805-2-1.5234-3.2422-0.42578-10.762-0.87109-21.52-1.3398-32.27-23-6.9336-46.332-12.707-69.91-17.297-57.508-11.109-115.69-21.027-172.29-36.188 0.36719 14.727 0.98438 29.465 1.875 44.129 41.137 16.379 84.469 27.938 126.39 41.926 47.875 15.953 95.758 31.926 143.64 47.914z"/>
 <path d="m336.99 630.49c-51.582-17.238-103.14-34.453-154.69-51.648-40.883-13.629-83.051-24.871-123.24-40.582 0.78906 11.68 1.707 23.289 2.7461 34.961 39.055 22.613 82.996 37.5 124.07 56.109 48.125 21.758 96.25 43.516 144.38 65.277 17.73 8.0078 35.414 16.07 53.055 24.195h-0.003906c-0.73047-23.441 2.3242-46.844 9.0469-69.309-18.375-6.3672-36.832-12.836-55.359-19.004zm-49.258 18.027c-22.68-6.7227-53.438-17.664-86.785-31.227-33.348-13.566-63.141-26.465-84.77-35.699l0.003906-0.003906c-12.02-4.3086-23.629-9.6836-34.688-16.066 12.52 2.5039 24.746 6.293 36.488 11.305 22.191 8.0703 52.445 20.23 85.621 33.75 33.18 13.52 63.562 25.117 85.688 33.066 12.23 3.5078 24.145 8.0273 35.625 13.508-12.664-1.5391-25.129-4.4336-37.18-8.6328z"/>
 <path d="m397.87 665.14c44.062 15 88.742 28.359 133.48 41.316 0-2.5703-0.054687-5.1289-0.054687-7.6953-43.52-15.215-86.785-30.938-130.24-46.211-1.1641 4.1641-2.2031 8.3164-3.1875 12.59z"/>
 <path d="m531.47 717.34c-0.66406-0.24219-1.2734-0.49609-1.9492-0.74219v0.003906c-1.0312-0.28516-1.9062-0.95703-2.4492-1.875-43.695-12.59-87.188-25.602-130.24-40.312-12.047 51.336 44.43 49.93 79.387 60.508 24.992 7.5 42.113 20.961 46.754 45.469 3.3672 1.3516 6.7227 2.8125 10.145 4.1641-2.0156-22.363-1.6484-44.789-1.6484-67.215z"/>
 <path d="m342.74 500.18-10.754-1.4336c-0.12109 8.1953-0.1875 16.32-0.24219 24.449 2.9336-0.48828 5.8672-0.9375 8.7383-1.3398 0.85156-7.2578 1.6484-14.398 2.2578-21.676z"/>
 <path d="m814.75 774.84c-35.023-5.4375-69.676-12.188-104.2-20.477-1.1562 0.28516-2.375 0.015624-3.3008-0.73047-24.207-5.8672-48.289-12.59-72.488-20.164-31.602-9.9648-63.008-20.625-94.305-31.48 0.054688 2.9336 0.12109 5.9336 0.12109 8.9258 36.121 15 50.297 48.891 78.102 75.938l0.003906-0.003907c24.727 23.531 54.25 41.441 86.543 52.5 50.453 10.438 101.44 18.09 152.73 22.922-27.152-20.891-43.105-53.172-43.207-87.43z"/>
 <path d="m540.64 721c-0.46875 22.488 0.22656 44.988 2.082 67.406 21.695 8.625 43.641 16.875 65.766 24.449 15 5.1367 30.133 9.7227 45.469 13.941-7.0508-4.2852-13.801-9.043-20.203-14.242-33.094-27.074-54.18-73.219-93.113-91.555z"/>
 <path d="m928.06 788.23c-34.406-2.9336-68.27-6.7891-101.81-11.738-0.73047 17.871 3.6172 35.586 12.539 51.086s22.059 28.156 37.879 36.496c9.5352 0.85156 19.07 1.7148 28.539 2.5039 51.832 5.207 104.18-0.92188 153.4-17.961 41.57-14.551 66.93-34.039 81.656-73.039v-0.003906c-18.414 10.27-38.777 16.559-59.773 18.461-50.605 6.2344-101.88-1.4648-152.43-5.8047z"/>
 <path d="m610.5 391.21c21.562 18.945 34.836 45.777 52.555 70.406 0.12109 0.1875 0.20312 0.39844 0.24609 0.61719 35.906 0.54688 71.812-1.125 107.51-5.0156-22.07-21.562-40.312-47.363-64.48-66.496-31.902 4.7695-63.809 1.5938-95.832 0.48828z"/>
 <path d="m298.25 526.88c-0.48828-11.008-0.85156-22.004-1.2188-33.008-80.426-11.297-160.75-23.105-240.98-35.43 0 5.3242 0 10.641 0.12109 15.938 64.539 17.539 130.97 27.871 196.49 41.008 15.469 3.0547 30.617 7.0469 45.59 11.492z"/>
 <path d="m296.48 455.88c0.12109-29.887-1.5859-63.383 6.5625-92.539-80.492 4.2852-164.22 0.25391-243.92 11.926-2.0703 24.562-3.0547 49.258-3.1797 73.883 80.129 12.188 160.43 22.922 240.74 33.75-0.14453-8.9922-0.26562-18.039-0.20703-27.02zm-236.34-70.66c0-12.188 12.188-12.188 12.188 0s-12.188 12.227-12.188 0zm20.84 43.762c-0.39844 3.7383-0.55859 7.4961-0.48828 11.25-0.054687 12.188-14.727 12.188-14.727 0-0.046874-5.1328 0.30078-10.266 1.0391-15.348 0.60938-3.9648 5.5039-5.3711 9.0469-4.4609 3.7773 0.94922 6.0742 4.7812 5.1289 8.5586zm21.395-0.55469v0.003907c-1.0078 4.2461-1.5625 8.5898-1.6523 12.953 0 4.0508-3.2812 7.332-7.332 7.332-4.0469 0-7.3281-3.2812-7.3281-7.332 0.125-5.6836 0.83984-11.336 2.1367-16.875 1.0781-3.9141 5.1289-6.2109 9.043-5.1328 3.9141 1.082 6.2109 5.1289 5.1328 9.043zm20.961-3.0547c-1.0977 6.1641-1.7695 12.395-2.0156 18.648 0 4.0469-3.2812 7.332-7.332 7.332-4.0469 0-7.332-3.2852-7.332-7.332 0.30469-7.5703 1.1602-15.109 2.5625-22.559 1.0859-3.9062 5.1328-6.1992 9.0469-5.125 3.832 1.1719 6.0664 5.1523 5.0703 9.0352zm20.625 2.2695c-1.4766 7.1602-1.6445 14.531-0.48828 21.75-0.007813 4.0508-3.2891 7.332-7.3398 7.3398-4.0156-0.089844-7.2461-3.3242-7.332-7.3398-1.2461-8.5234-0.89062-17.207 1.043-25.602 2.1094-9.2266 16.293-5.3164 14.156 3.8516zm22.059 25.547c-0.14062 3.9648-3.3945 7.1055-7.3633 7.1055s-7.2227-3.1406-7.3633-7.1055c-0.35547-9.8398 0.26953-19.688 1.875-29.398 1.875-9.2891 15.938-5.3828 14.117 3.8516-1.2617 8.4531-1.6719 17.012-1.2266 25.547zm22.125 1.1641c0.73047 9.4688-13.93 9.375-14.664 0h0.003906c-0.74219-9.2773-0.74219-18.598 0-27.875 0.73047-9.375 15.395-9.375 14.664 0h-0.003906c-0.71875 9.2773-0.70703 18.598 0.039062 27.875zm21.562-26.25c-1.2266 9.2188-1.7773 18.516-1.6484 27.812-0.14062 3.9492-3.3828 7.0781-7.3359 7.0781s-7.1953-3.1289-7.3359-7.0781c-0.0625-10.613 0.67188-21.219 2.2031-31.723 0.5-1.8789 1.7344-3.4766 3.418-4.4414 1.6875-0.96484 3.6914-1.2148 5.5625-0.69531 3.8242 1.1719 6.0742 5.1211 5.1289 9.0078zm23.586 32.812h0.003906c-0.14453 3.9648-3.3984 7.1055-7.3672 7.1055-3.9648 0-7.2227-3.1406-7.3633-7.1055-0.45703-12.023 0.035156-24.059 1.4727-36 1.4062-9.2891 15.523-5.3164 14.117 3.918-1.1406 10.645-1.4336 21.363-0.87109 32.051zm23.961 4.1523h0.003906c0 5.0625-4.1055 9.168-9.168 9.168-5.0664 0-9.168-4.1055-9.168-9.168 0-13.379 0.42969-26.699 1.1641-40.086 0.60938-11.738 18.945-11.793 18.336 0-0.75 13.355-1.1719 26.68-1.1719 40.02zm9.957 3.0547h0.003906c-1.3047-13.707-1.6914-27.488-1.1523-41.25 0.15625-4.9453 4.2109-8.875 9.1641-8.875 4.9492 0 9.0039 3.9297 9.1641 8.875-0.53125 13.762-0.14062 27.543 1.1602 41.25 1.1523 11.777-17.184 11.652-18.355-0.027344zm0.74219-88.988c0.16016-4.9453 4.2148-8.875 9.1641-8.875 4.9531 0 9.0078 3.9297 9.1641 8.875-0.007813 5.0664-4.1172 9.1641-9.1797 9.1562-5.0664-0.007812-9.1641-4.1172-9.1562-9.1836z"/>
 <path d="m588.13 386.14c-14.242-6.4766-38.203-13.996-48.102 7.5-6.9648 17.906-2.2031 31.105 14.43 39.543h-0.003907c13.664 8.4102 28.371 14.988 43.754 19.559 17.559 4.668 35.531 7.6133 53.66 8.8008-18.207-27-32.754-61.227-63.738-75.402z"/>
</svg>
