<?xml version="1.0" encoding="UTF-8"?>
<svg width="1200pt" height="1200pt" version="1.1" viewBox="0 0 1200 1200" xmlns="http://www.w3.org/2000/svg">
 <path d="m1159.5 299.06c4.8047 34.133 3.5117 68.848-3.8281 102.52-6.4023 32.812-10.734 69.984-35.625 94.434v0.003907c-1.3164 1.3438-3.0664 2.1797-4.9375 2.3594-96.348 52.219-188.7 113.38-282.12 170.62-111.8 68.438-221.3 141.87-334.12 208.43h-0.003906c-70.832 43.398-146.65 78.086-225.8 103.31-55.707 16.473-121.64 28.051-178.12 7.3672-49.855-18.215-70.367-54.188-49.293-104.72 27.246-65.098 69.684-124.02 111.82-180.16 46.352-62.688 97.719-121.51 153.59-175.89 0.23047-0.25781 0.47266-0.5 0.73047-0.73047 0.16797-0.16797 0.39453-0.33594 0.5625-0.50781v0.003907c61.414-59.879 131.42-110.25 207.7-149.47 28.387-14.168 57.203-27.379 86.445-39.629l0.003906 0.003907c0.49219-0.69141 1.207-1.1875 2.0234-1.4062 1.125-0.28125 2.25-0.50781 3.3203-0.84375 126.82-52.949 260.15-90.836 390.44-133.22 0.875-0.26172 1.7852-0.39453 2.6992-0.39453 1.2539-0.38281 2.5742-0.47656 3.8711-0.28125 64.82 9.1211 138.17 21.141 150.65 98.184zm-15.234 66.16c0.67578-5.7266 1.1797-11.523 1.5742-17.316-18.32 10.012-35.41 20.523-54.582 29.062s-37.941 16.754-56.156 26.195c-14.773 7.6484-28.492 16.359-42.992 24.18v-0.003906c-22.215 12.137-45.027 23.145-68.355 32.973-31.707 13.266-61.105 31.199-92.129 46.773-18.523 10.957-37.863 20.484-57.844 28.488-0.11328 0.054687-0.16797 0-0.28125 0.054687 1.1797 7.1445 2.25 14.336 3.2617 21.562 60.086-34.633 123.27-64.809 184.69-96.91 60.441-31.582 120.48-67.16 182.82-95.039zm-0.61719-27.188v-0.16797h-0.003906c-0.41406-11.254-2.6719-22.359-6.6836-32.879-8.8789 3.9297-16.809 7.8672-25.688 11.805v-0.003907c3.4883 11.504 6.1367 23.242 7.9219 35.129 8.5352-3.8906 16.715-8.5195 24.449-13.828zm-2.8125 51.039c0.78906-4.6016 1.4531-9.3281 2.1289-14.062-60.367 27.488-118.6 61.875-177.19 92.477-62.812 32.766-127.5 63.57-188.87 99.207l-0.003907-0.003906c-0.99609 0.61719-2.2109 0.75781-3.3203 0.39453-0.96484 0.30469-2.0156 0.14844-2.8477-0.42188-0.83594-0.57422-1.3633-1.4961-1.4258-2.5039-3.6289-31.406-9.9648-62.438-18.938-92.746-0.55469-1.4219-0.125-3.0352 1.0664-3.9844 0.40234-1.2227 1.3594-2.1836 2.5781-2.5898 68.438-25.406 134.79-58.969 201.63-88.367 45.984-20.23 91.352-41.652 137.55-61.32 10.566-4.5 21.477-9.5547 31.707-14.617 7.8672-3.8828 15.57-3.75 13.492-14.223h-0.003906c-3.5195-11.316-9.8906-21.535-18.496-29.68-101.51 30.75-205.51 57.449-300.27 106.12-100.2 51.504-182.77 128.4-268.11 200.57-0.32031 0.19141-0.65625 0.35938-1.0039 0.50781-16.75 17.418-34.18 32.211-43.789 40.414-41.82 35.699-80.625 75.16-122.65 110.29-32.961 35.25-68.168 68.336-105.39 99.047-15.742 12.477-31.031 25.688-46.434 38.84 4.707 3.9141 9.0156 8.2812 12.871 13.039 6.2305 8.2305 10.41 17.828 12.188 27.996 2.6445-1.3516 5.3438-2.6445 7.9297-4.1055 35.805-19.387 71.383-39.18 106.88-58.961 117.98-65.605 235.81-131.46 353.48-197.58 2.6328-52.406-3.2227-104.89-17.344-155.43-0.71484-0.75-1.0586-1.7812-0.9375-2.8125 1.9688-28.613 20.117-11.016 28.727 4.3867v0.003907c21.434 42.133 28.5 90.125 20.117 136.65 29.457-16.477 58.914-32.965 88.367-49.473 68.496-38.387 136.98-76.684 205.45-114.89 29.23-16.246 58.352-34.801 88.762-48.965 0.76953-4.5469 1.4453-8.9336 2.1211-13.152zm-7.6484 42.777c1.5195-6.5625 2.8125-13.125 3.9375-19.555-57.508 26.98-112.43 62.617-167.62 93.477-108.6 60.742-217.16 121.56-325.67 182.45 6.1523 3.1953 12.051 6.8594 17.641 10.961 78.75-45.582 158.18-90.047 237.33-135 53.062-30.125 106.19-60.234 159.38-90.328 24.715-13.902 49.219-30.039 75.02-41.953zm-23.043 50.082-0.003906-0.003906c9.668-11.402 16.59-24.871 20.23-39.375-24.508 12.086-48.055 27.375-71.773 40.754-53.508 30.293-107.01 60.641-160.51 91.043-78.383 44.453-157.02 88.461-235.04 133.67-1.332 0.80078-3.0117 0.73438-4.2773-0.16797-0.054688 0.11328 0 0.28125-0.11328 0.44922-7.8086 19.273-11.523 39.852-17.758 59.578 16.582-10.625 33.238-21.117 49.969-31.473 81-49.805 162.11-99.477 243.34-149.02 22.312-13.602 44.578-27.488 66.836-41.25 1.2383-6.6953 2.418-13.32 3.6562-19.961 0-0.054688 0.054687-0.11328 0.054687-0.22656l0.003907 0.003906c-0.42578-1.7148 0.33984-3.5039 1.875-4.3789 23.957-16.609 48.82-31.867 74.477-45.703 0.30469-0.097656 0.62109-0.17188 0.9375-0.22656 1.1055-1.3906 2.9609-1.9492 4.6523-1.3945 1.6875 0.55078 2.8594 2.0938 2.9297 3.8711 0 5.1094 0.11328 10.172-0.11328 15.234 6.8047-3.8242 13.609-7.5938 20.41-11.305 0.039062-0.011719 0.11328-0.066407 0.22656-0.066407zm-23.266-112.56c8.6523-4.3867 17.25-8.8203 25.855-13.32-1.9375-12.148-4.7773-24.137-8.4922-35.859-8.8789 3.8711-17.758 7.8086-26.699 11.746 4.125 12.203 7.25 24.723 9.3359 37.434zm-6.1875 128.95c0.44922-4.332 0.62109-8.6875 0.50781-13.043-23.945 12.188-45.816 27.824-68.438 42.273 0.027344 0.28125 0.027344 0.5625 0 0.84375-0.67578 3.9375-1.4062 7.8086-2.1367 11.746 23.191-14.203 46.516-28.359 70.066-41.793zm-27.543-111.94 25.969-12.984c-2.0117-12.922-5.0938-25.652-9.2148-38.062-8.875 3.9375-17.773 7.875-26.699 11.812 4.5273 12.738 7.8555 25.875 9.9453 39.234zm59.531-136.31c-27.262-22.379-67.059-27.188-105.28-32.492v-0.003906c-0.21484 0.070312-0.42188 0.16406-0.61719 0.28125-97.191 31.594-195.39 60.938-291.56 95.625-14.84 5.3438-29.738 10.789-44.57 16.359 33.695 2.5742 66.625 11.355 97.125 25.902 4.5547 2.1367 1.1797 8.4375-3.1953 7.5-0.35547 0.80469-0.97266 1.4648-1.7461 1.875-16.305 8.4922-34.07 16.527-45.535 31.48v0.003906c-1.2656 1.6406-3.4805 2.2188-5.3906 1.4062-0.49219 0.023438-0.98437-0.035156-1.4609-0.17187-46.875-13.828-92.812-28.273-141.49-25.969-44.145 19.953-86.348 43.941-126.07 71.664-8.2695 5.9062-16.473 11.859-24.629 17.934 7.1758-2.5938 14.477-4.8281 21.871-6.6914 38.391-9.6641 91.621-17.812 128.55 1.4609 32.812 17.09 27.883 45 10.312 72.461 74.062-63.852 148.45-129.45 236.32-173.18 94.789-47.074 196.53-74.926 297.38-105.44zm-93.254 153c8.6562-4.2617 17.312-8.5547 25.969-12.871v-0.003907c-2.0664-13.504-5.3828-26.789-9.8984-39.684-8.9336 3.9375-17.812 7.875-26.758 11.805 4.9414 13.184 8.5195 26.84 10.688 40.754zm-33.75 16.754c8.6641-4.332 17.316-8.5977 25.969-12.871v-0.003906c-2.0586-14.082-5.5977-27.91-10.566-41.25l-26.812 11.805c5.3867 13.629 9.2031 27.824 11.375 42.316zm-20.117 10.117c4.0977-2.082 8.2578-4.1523 12.367-6.1797l-0.003906-0.003907c-2.0312-14.691-5.8086-29.09-11.25-42.891-5.7383 2.5312-11.418 5.0078-17.148 7.5-0.9375 0.44922-1.875 0.84375-2.8672 1.293v0.003906c5.3477 14.25 9.207 29.016 11.523 44.062 2.3906-1.2578 4.8672-2.5508 7.3398-3.7891zm-36.074 18.184c6.9766-3.4883 13.883-7.0234 20.859-10.508-2.2305-15.203-6.0547-30.125-11.41-44.523-7.3672 3.2617-14.715 6.5781-22.039 9.9453h-0.003906c6.1562 14.414 10.391 29.57 12.594 45.086zm-27.547 13.969c6.5625-3.3203 13.125-6.6367 19.789-10.004h0.003906c-2.0664-15.441-6.1641-30.547-12.188-44.914-0.097656-0.21484-0.16406-0.44531-0.20703-0.67578-6.6367 3.0391-13.32 6.0742-19.961 9.1602 6.0156 14.926 10.234 30.512 12.562 46.434zm-27.543 13.941c6.6367-3.375 13.211-6.6953 19.789-10.004h0.003906c-2.2305-16.07-6.4023-31.809-12.422-46.875-6.5625 3.0938-13.211 6.0742-19.848 9.1016 5.8008 15.453 9.9844 31.461 12.477 47.777zm-25.914 13.125c6.0742-3.0938 12.188-6.1328 18.16-9.2148-2.4414-16.426-6.5859-32.555-12.363-48.125-5.457 2.4766-10.961 4.8945-16.414 7.3672l-0.003906 0.003906c1.8984 9.6562 4.3008 19.207 7.2031 28.613 1.6211 7.0469 2.2383 14.184 3.4219 21.328zm-13.547 6.8516c1.875-0.9375 3.8242-1.9609 5.7383-2.9141-1.4219-10.371-3.4102-20.656-5.9609-30.809-2.0391-6.3867-3.6523-12.906-4.8281-19.508-6.8047 2.9805-13.66 5.9609-20.523 8.8867 3.3242 17.281 7.5664 34.375 12.703 51.207 4.332-2.4453 8.6641-4.8086 12.875-6.8906zm-40.246 21.676c6.6367-3.375 13.211-6.9766 19.734-10.621-3.9922-17.484-10.227-34.352-12.984-52.059-6.6953 2.8125-13.379 5.625-20.129 8.3242 2.4023 18.543 9.2266 36.141 13.379 54.355zm-22.5 9.5547c5.0156-1.668 9.9336-3.6172 14.73-5.8438-4.0508-18.441-10.68-36.262-13.547-54.977-4.6875 1.875-9.375 3.7031-14.062 5.4453v0.003906c5.4766 18.16 9.7695 36.652 12.844 55.371zm-24.656 89.633c5.9531-32.812 4.9961-80.625-7.7617-111.46-3.1211-7.6445-6.8047-15.047-11.016-22.152-1.6328-2.8125-11.633-22.5-12.93-9.2734l0.003907 0.003907c0.19141 0.28906 0.34375 0.60547 0.44922 0.9375 13.98 49.762 20.016 101.42 17.879 153.06 4.6875-2.6445 9.375-5.2305 14.062-7.875-0.69141-0.92969-0.94141-2.1133-0.6875-3.2422zm-35.191-227.24c12.305-12.801 26.996-23.074 43.246-30.234-33.328-14.793-69.477-22.148-105.94-21.562-20.738 8.1016-41.371 16.473-61.715 25.461 42.402 1.4922 83.043 14.086 124.41 26.336zm-59.805 314.28c0.16797-0.14453 0.35547-0.26172 0.5625-0.33984-5.5-4.0625-11.512-7.3906-17.879-9.8906-0.22656-0.11328-0.33594-0.22656-0.5625-0.33594-48.281 27.035-96.547 54.047-144.8 81.027-62.953 35.199-125.94 70.246-188.96 105.14-14.062 7.6953-28.125 15.402-42.188 22.93 0.33594 3.4297 0.50781 6.918 0.5625 10.398 54.297-7.6445 106.66-25.496 154.31-52.613 0.33984-0.17188 0.69922-0.30078 1.0703-0.39453 1.293-7.1914 2.3516-14.504 3.3086-21.695v0.003906c0.089844-0.49219 0.26172-0.96875 0.50391-1.4062-0.10156-1.4336 0.77734-2.7539 2.1406-3.207 81.109-34.781 149.24-93.59 229.79-129.28 0.66797-0.30078 1.4062-0.41797 2.1367-0.33594zm-22.988 71.25c7.5-19.508 11.016-40.312 17.758-60.207-24.52 11.672-48.352 24.734-71.383 39.121 9.6094 19.848-0.67578 39.852-6.4688 59.758 20.074-12.844 40.078-25.828 60.094-38.703zm-70.379 45.242c4.1641-19.895 18.609-42.383 9.4961-61.875-24.789 15.348-49.293 31.312-74.363 46.199 12.816 15.516 8.8789 36.207 2.082 54.469 21.133-12.613 42.062-25.551 62.789-38.82zm-75.598-211.97c28.266-23.887 158.51-132.26 59.062-147.84-59.551-8.2656-120.11 4.8164-170.93 36.93-30.887 24.977-60.336 51.68-88.199 79.988 14.086-7.2383 29.254-12.137 44.914-14.504 4.6133-0.67578 6.918 5.3984 3.9375 7.5-0.09375 0.17969-0.20703 0.35156-0.33594 0.50781-16.34 18.023-30.387 37.996-41.824 59.465-7.2383 14.98-17.52 28.289-30.188 39.074-0.77344 0.66406-1.8047 0.94141-2.8047 0.75781-1.0039-0.17969-1.8672-0.80469-2.3594-1.6953-0.52734-0.27344-0.98828-0.65625-1.3516-1.125-10.598-11.574-15.418-27.309-13.125-42.836-6.8047 7.9766-13.492 16.023-20.07 24.281-2.5859 3.207-5.1172 6.4688-7.6406 9.6641v0.003906c4.9531 8.5781 11.188 16.352 18.488 23.051 0.5 0.39453 0.88672 0.91797 1.125 1.5117 1.5234 1.6133 1.6406 4.0977 0.28125 5.8477-7.75 10.688-14.098 22.32-18.883 34.625 10.961 2.8984 22.219 4.5195 33.555 4.8359 13.125 0.67578 26.926 2.1367 40.695 2.8125 10.531-10.191 19.473-21.902 26.531-34.742 0.33594-0.59766 0.82031-1.1016 1.4062-1.4531 0.59375-1.5312 2.0195-2.5859 3.6562-2.7031 27.32-2.7578 54.695-2.6992 81.281-9.5547 1.0117-1.0117 2.0234-2.0234 3.0273-3.0938 25.004-25.523 52.434-48.242 79.754-71.312zm1.0039 257.67c7.5938-17.43 16.527-41.25 2.3047-57.113-19.609 11.609-39.898 22.027-60.758 31.199v0.17188c-2.4805 22.398-7.4961 44.441-14.953 65.707 24.957-12.395 49.348-25.828 73.406-39.938zm-78.863 30c2.8164-8.418 5.1289-16.996 6.918-25.688-47.539 26.141-99.449 43.398-153.18 50.926-0.16797 0-0.33594-0.054687-0.5625-0.054687v-0.003907c-0.66016 9.2773-2.4727 18.434-5.3906 27.266 54.805-4.9062 103.14-29.129 152.21-52.453zm-6.0078 15.676c0.61719-1.3984 1.1797-2.8594 1.8008-4.3203-48.629 23.102-96.797 45.805-151.43 49.855h-0.003906c-2.3477 5.3086-5.2461 10.359-8.6523 15.062 54.898-14.105 108.01-34.441 158.29-60.609zm-73.125-182.46c23.816-5.5508 45.559-17.777 62.68-35.242-22.211 3.9844-44.805 4.4336-67.453 6.5625-0.054688 0.054687-0.054688 0.16797-0.11328 0.22656-6.207 11.051-13.637 21.363-22.152 30.75 9.0625 0.12109 18.117-0.65234 27.027-2.3047zm-8.4375 40.414c13.125-12.086 25.688-24.789 38.055-37.715h-0.003906c-20.359 8.7852-42.578 12.383-64.668 10.473-36.758-2.5312-103.82 2.9258-115.24-37.379-30.367 38.738-58.18 79.406-83.27 121.75 42.711-7.0859 95.164-5.457 131.53 19.613 31.023-25.715 63.855-49.492 93.594-76.754zm-27.266-157.39c8.3359-13.582 17.617-26.562 27.77-38.84-40.641 9.7773-94.32 41.25-60.32 86.559 14.898-12.762 22.27-31.418 32.551-47.719zm-64.133 363.12c17.137-16.078 25.312-46.828 24.113-68.805-0.61719 0.28125-1.1797 0.61719-1.8008 0.9375-32.887 17.305-69.195 27.602-103.12 42.891-1.1055 5.1602-3.5273 9.9414-7.0312 13.887-5.5391 6.0312-12.668 10.375-20.57 12.535 18.453 3.8789 37.32 5.4258 56.156 4.6016 17.547-0.70703 35.016-2.7305 52.258-6.0469zm22.875-78.074c-2.9766-15.586-11.379-29.609-23.719-39.582-22.43 19.844-46.027 38.336-70.66 55.367-3.6562 2.418-7.8672 5.2305-12.535 8.043v0.003906c2.4531 6.2891 3.8398 12.941 4.1094 19.688 34.621-15.254 69.242-27.113 102.8-43.52zm-31.82-45.207c-1.5742-0.9375-3.1953-2.0234-4.8828-2.8672-38.117-19.613-83.812-20.906-125.3-12.871-6.0938 11.051-12.027 22.152-17.539 33.551-1.6328 3.4219-3.2539 6.9102-4.7734 10.453-2.082 30.355 8.8789 61.547 48.562 46.031 6.8711-2.7266 13.559-5.8984 20.016-9.4961 0.62109-0.74609 1.5039-1.2266 2.4648-1.3516 29.793-16.957 55.707-41.578 81.449-63.449zm6.1328-165.54c-6.5312-6.2031-12.176-13.277-16.781-21.02-6.9688 8.8242-13.938 17.707-20.906 26.645-0.12109 6.2031 1.6992 12.289 5.207 17.41 3.5039 5.1172 8.5234 9.0156 14.348 11.145 4.8828-11.988 10.957-23.453 18.133-34.227zm-92.465 273.36c3.7891-4.8047 6.1602-10.57 6.8438-16.652 0.68359-6.0781-0.34766-12.227-2.9727-17.754-20.738 11.645-46.762 21.254-64.641 5.1758-7.2656-6.625-12.199-15.418-14.062-25.07-5.3359 23.211-1.4609 45.254 26.25 59.062 5.3008 2.6016 10.766 4.8516 16.359 6.7422 11.863 0.73828 23.508-3.4219 32.223-11.504z"/>
 <path d="m471.74 531.63c31.258 17.305 20.465 53.625-1.0117 74.531h-0.003907c-1.0391 1-2.5156 1.3984-3.918 1.0586-1.4023-0.34375-2.5273-1.3789-2.9883-2.7461-9.4414-11.473-20.875-21.145-33.75-28.559-0.74609-0.48828-1.3008-1.2227-1.5781-2.0703-1.7031-1.5859-1.8047-4.2539-0.22266-5.9609 11.289-13.703 24.156-26.023 38.332-36.703 1.375-1.1211 3.3789-0.99609 4.6055 0.28125 0.18359 0.03125 0.36328 0.085937 0.53516 0.16797zm-3.4766 64.867c15-16.875 23.324-42.777 0.73047-56.605l-0.003906-0.003906c-11.695 9.0547-22.383 19.348-31.875 30.695 11.633 7.0156 22.133 15.75 31.145 25.91z"/>
 <path d="m452.81 610.83c1.0391 0.48047 1.8203 1.3789 2.1562 2.4727 0.33203 1.0938 0.18359 2.2773-0.41406 3.2539-15.348 26.305-45.422 41.203-73.191 51.047-30.523 10.848-74.477 18.938-105.84 8.4844h0.003907c-1.4297-0.68359-2.5-1.9492-2.9414-3.4727-0.4375-1.5234-0.20703-3.1602 0.63281-4.5039 30.301-33.508 47.672-76.508 81.113-107.36 0.48828-1.6641 2.1016-2.7344 3.8242-2.5312 19.656 1.3203 38.77 7.0234 55.934 16.699 16.059 8.9336 25.453 23.719 38.727 35.914zm-7.5 4.5c-11.746-11.363-20.512-25.527-35.465-33.168-15.402-8.3594-32.312-13.578-49.746-15.348-31.75 29.438-49.125 69.984-76.977 102.7 29.398 7.5 69.254 0.27344 96.008-10.012 24.367-9.4414 51.348-21.582 66.18-44.176z"/>
 <path d="m378.66 517.41c1.3672 1.5742 1.2656 3.9375-0.22656 5.3906-10.18 9.8672-19.367 20.715-27.43 32.383-0.57031 0.94531-1.5 1.6211-2.5781 1.875-0.76562 0.78906-1.8281 1.2148-2.9258 1.1797-9.3672-1.082-18.855-0.33594-27.938 2.1953-1.5039 0.70703-3.3008 0.20312-4.2188-1.1836-1.0312-0.42969-1.8047-1.3125-2.0938-2.3945-0.28516-1.082-0.050782-2.2344 0.63281-3.1172 15.461-19.84 37.414-33.609 62.004-38.898 2.0078-0.4375 4.0352 0.65234 4.7734 2.5703zm-34.117 32.371c5.5391-8.2109 11.762-15.938 18.602-23.098-13.766 5.0547-26.332 12.922-36.891 23.098 6.0938-0.33594 12.199-0.33594 18.289 0z"/>
</svg>
